# xmcd CD database file
#
# Track frame offsets:
#	150
#	14477
#	33740
#	50975
#	67442
#	90892
#	107110
#	125907
#	145617
#	162995
#	176725
#
# Disc length: 2556 seconds
#
# Revision: 4
# Processed by: cddbd v1.5.1PL2 Copyright (c) Steve Scherf et al.
# Submitted via: CDex 1.51
#
DISCID=a609fa0b
DTITLE=Vários - Isto é Show Pop Rock Brasil (Volume 08)
DYEAR=1900
DGENRE=Blues
TTITLE0=Obrigado Não (Rita Lee)
TTITLE1=Chame do Mundo (Marina)
TTITLE2=E.C.T. (Cássia Eller)
TTITLE3=Fruta Madura (Rita Lee)
TTITLE4=Sobre o Tempo (Nenhum de Nós)
TTITLE5=O Nosso Amor a Gente Inventa (Cazuza)
TTITLE6=País Tropical (Jorge Ben)
TTITLE7=Vento Ventania (Biquini Cavadão)
TTITLE8=Longe Daqui, Aqui Mesmo (Rita Lee)
TTITLE9=Beth Morreu (Camisa de Venus)
TTITLE10=Rock da Cachorra (Eduardo Dusek)
EXTD=
EXTT0=Tylden and Co. - 1995
EXTT1=Free CD with the game BrainDead 13 from ReadySoft Incorporated. Contains the instrumental music used in the game.
EXTT2=1998 Re-release.  ITN Corporation.
EXTT3=By Stang 04/99
EXTT4=Promo CD96003
EXTT5=P and C 1982\n\nStern Meissen:\n\nMartin Schreier (ld, voc]\nThomas Kurzhals (keyb]\nMichael Behm (dr, voc]\nReinhard Fißler (voc]\nUwe Haßbecker (g]\nPeter Rasym (bg)
EXTT6=with Dave Anderson and Steve Forward\n© 1990 Charly Records Ltd.
EXTT7=submitted by bledde@algonet.se
EXTT8=Recorded 1984
EXTT9=Based on the music of Tchaïkovsky
EXTT10=Neue Deutsche Welle vor dem Überschlag
PLAYORDER=
